<mxfile host="app.diagrams.net" agent="Mozilla/5.0 (Windows NT 10.0; Win64; x64) AppleWebKit/537.36 (KHTML, like Gecko) Chrome/131.0.0.0 Safari/537.36" version="24.8.6">
  <diagram name="Page-1" id="M6lPElfAiDq-pEFCVEl9">
    <mxGraphModel dx="1393" dy="778" grid="1" gridSize="10" guides="1" tooltips="1" connect="1" arrows="1" fold="1" page="1" pageScale="1" pageWidth="850" pageHeight="1100" math="0" shadow="0">
      <root>
        <mxCell id="0" />
        <mxCell id="1" parent="0" />
        <mxCell id="lsDSv3-_zCQG1kYKw6N6-8" value="" style="edgeStyle=orthogonalEdgeStyle;rounded=0;orthogonalLoop=1;jettySize=auto;html=1;" edge="1" parent="1" source="lsDSv3-_zCQG1kYKw6N6-3" target="lsDSv3-_zCQG1kYKw6N6-4">
          <mxGeometry relative="1" as="geometry" />
        </mxCell>
        <mxCell id="lsDSv3-_zCQG1kYKw6N6-3" value="Start" style="strokeWidth=2;html=1;shape=mxgraph.flowchart.start_2;whiteSpace=wrap;" vertex="1" parent="1">
          <mxGeometry x="375" y="50" width="100" height="100" as="geometry" />
        </mxCell>
        <mxCell id="lsDSv3-_zCQG1kYKw6N6-9" value="" style="edgeStyle=orthogonalEdgeStyle;rounded=0;orthogonalLoop=1;jettySize=auto;html=1;" edge="1" parent="1" source="lsDSv3-_zCQG1kYKw6N6-4" target="lsDSv3-_zCQG1kYKw6N6-7">
          <mxGeometry relative="1" as="geometry" />
        </mxCell>
        <mxCell id="lsDSv3-_zCQG1kYKw6N6-4" value="แสดงผลHello World." style="rounded=1;whiteSpace=wrap;html=1;absoluteArcSize=1;arcSize=14;strokeWidth=2;" vertex="1" parent="1">
          <mxGeometry x="340" y="250" width="170" height="100" as="geometry" />
        </mxCell>
        <mxCell id="lsDSv3-_zCQG1kYKw6N6-7" value="End" style="strokeWidth=2;html=1;shape=mxgraph.flowchart.start_2;whiteSpace=wrap;" vertex="1" parent="1">
          <mxGeometry x="375" y="450" width="100" height="100" as="geometry" />
        </mxCell>
      </root>
    </mxGraphModel>
  </diagram>
</mxfile>
